<svg width="60" height="60" viewBox="0 0 60 60" fill="none" xmlns="http://www.w3.org/2000/svg">
<path d="M25.5579 23.5794H36.4206V34.4421V35.6652V36.4206H35.6652H23.5794V25.5579V23.5794H24.3026H25.5579Z" stroke="black"/>
<path d="M19.843 19.3952L19.8431 19.3953L19.844 19.3838L19.8923 18.7562L19.9406 18.1285C19.971 17.7336 20.0318 17.3355 20.0965 16.9155C20.7875 12.9318 22.7015 9.229 25.6211 6.30917C29.3914 2.57071 34.3509 0.5 39.6566 0.5C44.9623 0.5 49.9217 2.57065 53.692 6.30901C57.4284 10.0456 59.5 15.0363 59.5 20.3433C59.5 25.6507 57.4282 30.6415 53.6915 34.3782C50.9139 37.1558 47.4278 39.0233 43.6652 39.7937V39.7927V39.7913V39.7898V39.7884V39.7869V39.7855V39.784V39.7825V39.7811V39.7796V39.7782V39.7767V39.7753V39.7738V39.7723V39.7709V39.7694V39.7679V39.7665V39.765V39.7636V39.7621V39.7606V39.7592V39.7577V39.7562V39.7548V39.7533V39.7518V39.7504V39.7489V39.7474V39.746V39.7445V39.743V39.7416V39.7401V39.7386V39.7371V39.7357V39.7342V39.7327V39.7312V39.7298V39.7283V39.7268V39.7253V39.7239V39.7224V39.7209V39.7194V39.7179V39.7164V39.715V39.7135V39.712V39.7105V39.709V39.7076V39.7061V39.7046V39.7031V39.7016V39.7001V39.6986V39.6971V39.6956V39.6942V39.6927V39.6912V39.6897V39.6882V39.6867V39.6852V39.6837V39.6822V39.6807V39.6792V39.6777V39.6762V39.6747V39.6732V39.6717V39.6702V39.6687V39.6672V39.6657V39.6642V39.6627V39.6612V39.6597V39.6582V39.6567V36.9336C46.7574 36.1932 49.5324 34.6082 51.7269 32.4136C54.81 29.3306 56.7339 25.0527 56.7339 20.3433C56.7339 10.9256 49.0744 3.26609 39.6566 3.26609C34.9473 3.26609 30.6694 5.18999 27.5864 8.27306L27.5838 8.27565C25.3335 10.559 23.6752 13.4741 22.9776 16.7262C22.8773 17.1615 22.8108 17.594 22.7474 18.0059L22.7461 18.0141C22.6789 18.4513 22.6455 18.8856 22.6137 19.2984L22.6133 19.3038C22.5794 19.6791 22.5794 20.0192 22.5794 20.3664V20.3755V23.1116V25.5901V36.9528V37.4528H23.0794H35.6974H36.4528V39.6888C36.4528 39.8772 36.4527 40.0497 36.4482 40.2189H35.6652H34.4099H19.8133V25.6223V24.367V23.1116V20.3433C19.8133 20.0162 19.8137 19.6878 19.843 19.3952Z" fill="#F7654A" stroke="black"/>
<path d="M37.4528 23.0794V22.5794H36.9528H25.5901H24.3348H23.5736L23.5472 20.3404C23.5472 20.1532 23.5473 19.9816 23.5518 19.8133H24.3348H25.5901H40.1867V36.8884V39.6566V39.6572V39.6578V39.6583V39.6589V39.6595V39.66V39.6606V39.6611V39.6617V39.6623V39.6628V39.6634V39.6639V39.6645V39.665V39.6656V39.6662V39.6667V39.6673V39.6678V39.6684V39.6689V39.6695V39.67V39.6706V39.6711V39.6717V39.6722V39.6728V39.6733V39.6738V39.6744V39.6749V39.6755V39.676V39.6766V39.6771V39.6776V39.6782V39.6787V39.6793V39.6798V39.6803V39.6809V39.6814V39.6819V39.6825V39.683V39.6835V39.6841V39.6846V39.6851V39.6857V39.6862V39.6867V39.6873V39.6878V39.6883V39.6888V39.6894V39.6899V39.6904V39.6909V39.6915V39.692V39.6925V39.693V39.6936V39.6941V39.6946V39.6951V39.6956V39.6962V39.6967V39.6972V39.6977V39.6982V39.6988V39.6993V39.6998V39.7003V39.7008V39.7013V39.7019V39.7024V39.7029V39.7034V39.7039V39.7044V39.7049V39.7054V39.706V39.7065V39.707V39.7075V39.708V39.7085V39.709V39.7095V39.71V39.7105V39.711V39.7115V39.712V39.7125V39.713V39.7136V39.7141V39.7146V39.7151V39.7156V39.7161V39.7166V39.7171V39.7176V39.7181V39.7186V39.7191V39.7196V39.7201V39.7206V39.7211V39.7216V39.7221V39.7225V39.723V39.7235V39.724V39.7245V39.725V39.7255V39.726V39.7265V39.727V39.7275V39.728V39.7285V39.729V39.7295V39.73V39.7304V39.7309V39.7314V39.7319V39.7324V39.7329V39.7334V39.7339V39.7344V39.7348V39.7353V39.7358V39.7363V39.7368V39.7373V39.7378V39.7383V39.7387V39.7392V39.7397V39.7402V39.7407V39.7412V39.7416V39.7421V39.7426V39.7431V39.7436V39.7441V39.7445V39.745V39.7455V39.746V39.7465V39.7469V39.7474V39.7479V39.7484V39.7489V39.7493V39.7498V39.7503V39.7508V39.7513V39.7517V39.7522V39.7527V39.7532V39.7537V39.7541V39.7546V39.7551V39.7556V39.756V39.7565V39.757V39.7575V39.758V39.7584V39.7589V39.7594V39.7599V39.7603V39.7608V39.7613V39.7618V39.7622V39.7627V39.7632V39.7637V39.7641V39.7646V39.7651V39.7656V39.766V39.7665V39.767V39.7675V39.7679V39.7684V39.7689V39.7693V39.7698V39.7703V39.7708V39.7712V39.7717V39.7722V39.7727V39.7731V39.7736V39.7741V39.7745V39.775V39.7755V39.776V39.7764V39.7769V39.7774V39.7778V39.7783V39.7788V39.7793V39.7797V39.7802V39.7807V39.7812V39.7816V39.7821V39.7826V39.783V39.7835V39.784V39.7845V39.7849V39.7854V39.7859V39.7863V39.7868V39.7873V39.7878V39.7882V39.7887V39.7892V39.7896V39.7901V39.7906V39.7911V39.7915V39.792V39.7925V39.7929V39.7934V39.7939V39.7944V39.7948V39.7953V39.7958V39.7962V39.7967V39.7972V39.7977V39.7981V39.7986V39.7991V39.7996V39.8V39.8005V39.801V39.8014V39.8019V39.8024V39.8029V39.8033V39.8038V39.8043V39.8048V39.8052V39.8057V39.8062V39.8067V39.8071V39.8076V39.8081V39.8086V39.809V39.8095V39.81V39.8105V39.8109V39.8114V39.8119V39.8124V39.8128V39.8133V39.8138V39.8143V39.8147V39.8152V39.8157V39.8162V39.8167V39.8171V39.8176V39.8181V39.8186V39.819V39.8195V39.82V39.8205V39.821V39.8214V39.8219V39.8224V39.8229V39.8234V39.8238V39.8243V39.8248V39.8253V39.8258V39.8263V39.8267V39.8272V39.8277V39.8282V39.8287V39.8291V39.8296V39.8301V39.8306V39.8311V39.8316V39.8321V39.8325V39.833V39.8335V39.834V39.8345V39.835V39.8355V39.8359V39.8364V39.8369V39.8374V39.8379V39.8384V39.8389V39.8394V39.8399V39.8404V39.8408V39.8413V39.8418V39.8423V39.8428V39.8433V39.8438V39.8443V39.8448V39.8453V39.8458V39.8463V39.8468V39.8473V39.8477V39.8482V39.8487V39.8492V39.8497V39.8502V39.8507V39.8512V39.8517V39.8522V39.8527V39.8532V39.8537V39.8542V39.8547V39.8552V39.8557V39.8562V39.8567V39.8572V39.8577V39.8582V39.8588V39.8593V39.8598V39.8603V39.8608V39.8613V39.8618V39.8623V39.8628V39.8633V39.8638V39.8643V39.8648V39.8654V39.8659V39.8664V39.8669V39.8674V39.8679V39.8684V39.8689V39.8695V39.87V39.8705V39.871V39.8715V39.872V39.8725V39.8731V39.8736V39.8741V39.8746V39.8751V39.8757V39.8762V39.8767V39.8772V39.8778V39.8783V39.8788V39.8793V39.8798V39.8804V39.8809V39.8814V39.882V39.8825V39.883V39.8835V39.8841V39.8846V39.8851V39.8857V39.8862V39.8867V39.8873V39.8878V39.8883V39.8889V39.8894V39.8899V39.8905V39.891V39.8915V39.8921V39.8926V39.8932V39.8937V39.8942V39.8948V39.8953V39.8959V39.8964V39.897V39.8975V39.898V39.8986V39.8991V39.8997V39.9002V39.9008V39.9013V39.9019V39.9024V39.903V39.9035V39.9041V39.9046V39.9052V39.9057V39.9063V39.9069V39.9074V39.908V39.9085V39.9091V39.9096V39.9102V39.9108V39.9113V39.9119V39.9125V39.913V39.9136V39.9142V39.9147V39.9153V39.9158V39.9164V39.917V39.9175V39.9181V39.9187V39.9192V39.9198V39.9203V39.9209V39.9214V39.922V39.9226V39.9231V39.9237V39.9242V39.9248V39.9253V39.9259V39.9264V39.927V39.9275V39.9281V39.9286V39.9292V39.9297V39.9303V39.9308V39.9314V39.9319V39.9324V39.933V39.9335V39.9341V39.9346V39.9351V39.9357V39.9362V39.9368V39.9373V39.9378V39.9384V39.9389V39.9394V39.94V39.9405V39.941V39.9416V39.9421V39.9426V39.9432V39.9437V39.9442V39.9448V39.9453V39.9458V39.9464V39.9469V39.9474V39.9479V39.9485V39.949V39.9495V39.95V39.9506V39.9511V39.9516V39.9521V39.9526V39.9532V39.9537V39.9542V39.9547V39.9552V39.9558V39.9563V39.9568V39.9573V39.9578V39.9583V39.9589V39.9594V39.9599V39.9604V39.9609V39.9614V39.9619V39.9624V39.963V39.9635V39.964V39.9645V39.965V39.9655V39.966V39.9665V39.967V39.9675V39.968V39.9685V39.969V39.9696V39.9701V39.9706V39.9711V39.9716V39.9721V39.9726V39.9731V39.9736V39.9741V39.9746V39.9751V39.9756V39.9761V39.9766V39.9771V39.9776V39.9781V39.9786V39.9791V39.9796V39.9801V39.9806V39.9811V39.9815V39.982V39.9825V39.983V39.9835V39.984V39.9845V39.985V39.9855V39.986V39.9865V39.987V39.9875V39.988V39.9884V39.9889V39.9894V39.9899V39.9904V39.9909V39.9914V39.9919V39.9924V39.9928V39.9933V39.9938V39.9943V39.9948V39.9953V39.9958V39.9962V39.9967V39.9972V39.9977V39.9982V39.9987V39.9992V39.9996V40.0001V40.0006V40.0011V40.0016V40.0021V40.0025V40.003V40.0035V40.004V40.0045V40.0049V40.0054V40.0059V40.0064V40.0069V40.0073V40.0078V40.0083V40.0088V40.0093V40.0097V40.0102V40.0107V40.0112V40.0117V40.0121V40.0126V40.0131V40.0136V40.014V40.0145V40.015V40.0155V40.0159V40.0164V40.0169V40.0174V40.0178V40.0183V40.0188V40.0193V40.0197V40.0202V40.0207V40.0212V40.0216V40.0221V40.0226V40.0231V40.0235V40.024V40.0245V40.025V40.0254V40.0259V40.0264V40.0269V40.0273V40.0278V40.0283V40.0287V40.0292V40.0297V40.0302V40.0306V40.0311V40.0316V40.0321V40.0325V40.033V40.0335V40.0339V40.0344V40.0349V40.0354V40.0358V40.0363V40.0368V40.0372V40.0377V40.0382V40.0387V40.0391V40.0396V40.0401V40.0406V40.041V40.0415V40.042V40.0424V40.0429V40.0434V40.0439V40.0443V40.0448V40.0453V40.0457V40.0462V40.0467V40.0472V40.0476V40.0481V40.0486V40.049V40.0495V40.05V40.0505V40.0509V40.0514V40.0519V40.0523V40.0528V40.0533V40.0538V40.0542V40.0547V40.0552V40.0556V40.0561V40.0566V40.0571V40.0575V40.058V40.0585V40.059V40.0594V40.0599V40.0604V40.0609V40.0613V40.0618V40.0623V40.0627V40.0632V40.0637V40.0642V40.0646V40.0651V40.0656V40.0661V40.0665V40.067V40.0675V40.068V40.0684V40.0689V40.0694V40.0699V40.0704V40.0708V40.0713V40.0718V40.0723V40.0727V40.0732V40.0737V40.0742V40.0746V40.0751V40.0756V40.0761V40.0766V40.077V40.0775V40.078V40.0785V40.079V40.0794V40.0799V40.0804V40.0809V40.0814V40.0818V40.0823V40.0828V40.0833V40.0838V40.0842V40.0847V40.0852V40.0857V40.0862V40.0867V40.0871V40.0876V40.0881V40.0886V40.0891V40.0896V40.0901V40.0905V40.091V40.0915V40.092V40.0925V40.093V40.0935V40.0939V40.0944V40.0949V40.0954V40.0959V40.0964V40.0969V40.0974V40.0979V40.0984V40.0988V40.0993V40.0998V40.1003V40.1008V40.1013V40.1018V40.1023V40.1028V40.1033V40.1038V40.1043V40.1048V40.1053V40.1058V40.1063V40.1067V40.1072V40.1077V40.1082V40.1087V40.1092V40.1097V40.1102V40.1107V40.1112V40.1117V40.1122V40.1127V40.1132V40.1137V40.1142V40.1148V40.1153V40.1158V40.1163V40.1168V40.1173V40.1178V40.1183V40.1188V40.1193V40.1198V40.1203V40.1208V40.1213V40.1218V40.1224V40.1229V40.1234V40.1239V40.1244V40.1249V40.1254V40.1259V40.1263C40.1544 40.3175 40.1545 40.5 40.1545 40.639V40.6433C39.9323 45.5665 37.8935 50.1757 34.3792 53.6905C30.6089 57.4291 25.6493 59.5 20.3433 59.5C15.0363 59.5 10.0456 57.4284 6.30901 53.692C2.57065 49.9218 0.5 44.9623 0.5 39.6566C0.5 34.3488 2.57198 29.3607 6.33618 25.6906L6.3362 25.6906L6.34068 25.6862C9.11824 22.9086 12.6044 21.041 16.367 20.2706V20.2716V20.2731V20.2746V20.276V20.2775V20.2789V20.2804V20.2818V20.2833V20.2847V20.2862V20.2877V20.2891V20.2906V20.292V20.2935V20.295V20.2964V20.2979V20.2993V20.3008V20.3023V20.3037V20.3052V20.3067V20.3081V20.3096V20.3111V20.3125V20.314V20.3155V20.3169V20.3184V20.3199V20.3213V20.3228V20.3243V20.3258V20.3272V20.3287V20.3302V20.3317V20.3331V20.3346V20.3361V20.3376V20.339V20.3405V20.342V20.3435V20.345V20.3464V20.3479V20.3494V20.3509V20.3524V20.3539V20.3553V20.3568V20.3583V20.3598V20.3613V20.3628V20.3643V20.3657V20.3672V20.3687V20.3702V20.3717V20.3732V20.3747V20.3762V20.3777V20.3792V20.3807V20.3822V20.3837V20.3852V20.3867V20.3882V20.3897V20.3912V20.3927V20.3942V20.3957V20.3972V20.3987V20.4002V20.4017V20.4032V20.4047V20.4062V20.4077V23.1308C13.2748 23.8711 10.4998 25.4562 8.30525 27.6507C5.22218 30.7338 3.29828 35.0117 3.29828 39.721C3.29828 49.1388 10.9578 56.7983 20.3755 56.7983C25.0849 56.7983 29.3628 54.8744 32.4458 51.7913L32.4484 51.7887C34.6987 49.5054 36.3569 46.5902 37.0546 43.3382C37.1549 42.903 37.2214 42.4705 37.2848 42.0586L37.286 42.0503C37.3533 41.6131 37.3867 41.1788 37.4185 40.766L37.4185 40.7641C37.4187 40.7629 37.4188 40.7617 37.4189 40.7605C37.4528 40.3852 37.4528 40.0451 37.4528 39.698V39.6888V36.9528V35.6974V34.442V23.0794Z" fill="#F7654A" stroke="black"/>
</svg>
